<svg xmlns="http://www.w3.org/2000/svg" xmlns:xlink="http://www.w3.org/1999/xlink" viewBox="8946 2656 118 116">
  <defs>
    <style>
      .cls-1 {
        fill: #ccc;
      }

      .cls-2 {
        fill: rgba(255,255,255,0.6);
      }

      .cls-3 {
        filter: url(#Rectangle_249);
      }
    </style>
    <filter id="Rectangle_249" x="8946" y="2656" width="118" height="116" filterUnits="userSpaceOnUse">
      <feOffset dy="1" input="SourceAlpha"/>
      <feGaussianBlur stdDeviation="1" result="blur"/>
      <feFlood flood-opacity="0.161"/>
      <feComposite operator="in" in2="blur"/>
      <feComposite in="SourceGraphic"/>
    </filter>
  </defs>
  <g id="aguardando_pacote" transform="translate(8825 2570)">
    <g class="cls-3" transform="matrix(1, 0, 0, 1, -8825, -2570)">
      <rect id="Rectangle_249-2" data-name="Rectangle 249" class="cls-1" width="112" height="110" rx="2" transform="translate(8949 2658)"/>
    </g>
    <path id="ic_box" class="cls-2" d="M77.4,14.573,47.408.1a.968.968,0,0,0-.841,0L16.579,14.573a.967.967,0,0,0-.547.871V50.6a.967.967,0,0,0,.547.871L46.567,65.951a.968.968,0,0,0,.841,0L77.4,51.474a.967.967,0,0,0,.547-.871V15.444A.968.968,0,0,0,77.4,14.573ZM46.988,2.041l27.763,13.4L66.7,19.329a.959.959,0,0,0-.164-.1L38.964,5.915ZM36.779,7.008,64.5,20.392l-5.678,2.741L31.113,9.755ZM65.15,22.227V32.359l-5.3,2.56V24.787ZM76.008,50,47.955,63.538V30.528l10.265-5c.481-.232-.36-1.975-.841-1.743L46.988,28.847,40.17,25.556c-.481-.233-1.322,1.51-.841,1.743l6.691,3.23v33.01L17.967,50V16.985L39.329,27.3a.963.963,0,0,0,.42.1c.36,0,.9-1.607.421-1.839L19.225,15.444l9.611-4.64L57.9,24.834l.013.017v11.61a.968.968,0,0,0,1.388.871l7.239-3.494a.967.967,0,0,0,.547-.871V21.293l8.923-4.308V50Z" transform="translate(132.968 110.001)"/>
  </g>
</svg>
