<svg xmlns="http://www.w3.org/2000/svg" xmlns:xlink="http://www.w3.org/1999/xlink" viewBox="11096 2656 118 116">
  <defs>
    <style>
      .cls-1 {
        fill: #fbcb43;
      }

      .cls-2 {
        fill: #fff;
      }

      .cls-3 {
        filter: url(#Rectangle_249);
      }
    </style>
    <filter id="Rectangle_249" x="11096" y="2656" width="118" height="116" filterUnits="userSpaceOnUse">
      <feOffset dy="1" input="SourceAlpha"/>
      <feGaussianBlur stdDeviation="1" result="blur"/>
      <feFlood flood-opacity="0.161"/>
      <feComposite operator="in" in2="blur"/>
      <feComposite in="SourceGraphic"/>
    </filter>
  </defs>
  <g id="empacotado" transform="translate(10975 2570)">
    <g class="cls-3" transform="matrix(1, 0, 0, 1, -10975, -2570)">
      <rect id="Rectangle_249-2" data-name="Rectangle 249" class="cls-1" width="112" height="110" rx="2" transform="translate(11099 2658)"/>
    </g>
    <g id="Group_712" data-name="Group 712" transform="translate(-6 -739)">
      <g id="Group_655" data-name="Group 655" transform="translate(155 849)">
        <g id="Group_654" data-name="Group 654" transform="translate(0 0)">
          <path id="Path_198" data-name="Path 198" class="cls-2" d="M77.4,14.573,47.408.1a.968.968,0,0,0-.841,0L16.579,14.573a.967.967,0,0,0-.547.871V50.6a.967.967,0,0,0,.547.871L46.567,65.951a.968.968,0,0,0,.841,0L77.4,51.474a.967.967,0,0,0,.547-.871V15.444A.968.968,0,0,0,77.4,14.573ZM46.988,2.041l27.763,13.4L66.7,19.329a.959.959,0,0,0-.164-.1L38.964,5.915ZM36.779,7.008,64.5,20.392l-5.678,2.741L31.113,9.755ZM65.15,22.227V32.359l-5.3,2.56V24.787ZM76.008,50,47.955,63.538V30.528l6.692-3.23a.967.967,0,0,0-.841-1.743l-6.818,3.291-2.683-1.3a.967.967,0,1,0-.841,1.743l2.556,1.234v33.01L17.967,50V16.985L39.329,27.3a.967.967,0,0,0,.841-1.743L19.225,15.444l9.611-4.64L57.9,24.834l.013.017v11.61a.968.968,0,0,0,1.388.871l7.239-3.494a.967.967,0,0,0,.547-.871V21.293l8.923-4.308V50Z" transform="translate(-16.032 0.001)"/>
        </g>
      </g>
      <g id="Group_710" data-name="Group 710">
        <g id="Group_657" data-name="Group 657" transform="translate(159.13 893.932)">
          <g id="Group_656" data-name="Group 656">
            <path id="Path_199" data-name="Path 199" class="cls-2" d="M53.837,343.482l-4.4-2.124A.967.967,0,0,0,48.6,343.1l4.4,2.124a.967.967,0,0,0,.841-1.742Z" transform="translate(-48.048 -341.261)"/>
          </g>
        </g>
        <g id="Group_659" data-name="Group 659" transform="translate(159.136 889.344)">
          <g id="Group_658" data-name="Group 658">
            <path id="Path_200" data-name="Path 200" class="cls-2" d="M57.929,309.864l-8.445-4.077a.968.968,0,1,0-.841,1.743l8.445,4.077a.968.968,0,0,0,.841-1.743Z" transform="translate(-48.096 -305.69)"/>
          </g>
        </g>
      </g>
    </g>
  </g>
</svg>
