<svg xmlns="http://www.w3.org/2000/svg" viewBox="7254 3409 61.911 66.047">
  <defs>
    <style>
      .cls-1 {
        fill: rgba(255,255,255,0.6);
      }
    </style>
  </defs>
  <g id="ic_box_nao_confirmado" transform="translate(7099 2560)">
    <g id="Group_655" data-name="Group 655" transform="translate(155 849)">
      <g id="Group_654" data-name="Group 654" transform="translate(0 0)">
        <path id="Path_198" data-name="Path 198" class="cls-1" d="M77.4,14.573,47.408.1a.968.968,0,0,0-.841,0L16.579,14.573a.967.967,0,0,0-.547.871V50.6a.967.967,0,0,0,.547.871L46.567,65.951a.968.968,0,0,0,.841,0L77.4,51.474a.967.967,0,0,0,.547-.871V15.444A.968.968,0,0,0,77.4,14.573ZM46.988,2.041l27.763,13.4L66.7,19.329a.959.959,0,0,0-.164-.1L38.964,5.915ZM36.779,7.008,64.5,20.392l-5.678,2.741L31.113,9.755ZM65.15,22.227V32.359l-5.3,2.56V24.787ZM76.008,50,47.955,63.538V30.528l11.174-5.452a.967.967,0,0,0-.841-1.743l-11.3,5.513-7.664-3.742a.967.967,0,1,0-.841,1.743l7.537,3.681v33.01L17.967,50V16.985L39.329,27.3a.967.967,0,0,0,.841-1.743L19.225,15.444l9.611-4.64L57.9,24.834l.013.017v11.61a.968.968,0,0,0,1.388.871l7.239-3.494a.967.967,0,0,0,.547-.871V21.293l8.923-4.308V50Z" transform="translate(-16.032 0.001)"/>
      </g>
    </g>
  </g>
</svg>
