<svg xmlns="http://www.w3.org/2000/svg" viewBox="7254 3685 54.255 59.188">
  <defs>
    <style>
      .cls-1 {
        fill: rgba(255,255,255,0.6);
      }
    </style>
  </defs>
  <path id="ic_hand_nao_confirmado" class="cls-1" d="M55.255,13.564V49.323a9.894,9.894,0,0,1-9.865,9.865h-18a9.848,9.848,0,0,1-7.029-2.935L1,36.573S4.107,33.54,4.206,33.49a2.922,2.922,0,0,1,1.948-.715,3.013,3.013,0,0,1,1.48.395c.1.025,10.629,6.067,10.629,6.067V9.865a3.7,3.7,0,0,1,7.4,0V27.128h2.466V3.7a3.7,3.7,0,0,1,7.4,0V27.128h2.466V6.165a3.7,3.7,0,0,1,7.4,0V27.128h2.466V13.564a3.7,3.7,0,0,1,7.4,0Z" transform="translate(7253 3685)"/>
</svg>
