<svg xmlns="http://www.w3.org/2000/svg" viewBox="7229 3956 49.158 39.327">
  <defs>
    <style>
      .cls-1 {
        fill: rgba(255,255,255,0.6);
      }
    </style>
  </defs>
  <path id="ic_novo_active" class="cls-1" d="M46.242,4H6.916A4.878,4.878,0,0,0,2.025,8.916L2,38.411a4.9,4.9,0,0,0,4.916,4.916H46.242a4.9,4.9,0,0,0,4.916-4.916V8.916A4.9,4.9,0,0,0,46.242,4ZM17.976,31.037H15.027l-6.268-8.6v8.6H5.687V16.29H8.759l6.145,8.6v-8.6h3.072Zm12.29-11.651H24.121v2.753h6.145v3.1H24.121v2.728h6.145v3.072H20.434V16.29h9.832Zm17.205,9.193a2.465,2.465,0,0,1-2.458,2.458H35.182a2.465,2.465,0,0,1-2.458-2.458V16.29H35.8V27.375h2.777V18.723h3.072V27.35H44.4V16.29h3.072Z" transform="translate(7227 3952)"/>
</svg>
