<svg xmlns="http://www.w3.org/2000/svg" viewBox="7165 4079 38.544 38.544">
  <defs>
    <style>
      .cls-1 {
        fill: #fff;
      }
    </style>
  </defs>
  <path id="ic_perfil" class="cls-1" d="M3,7.283V37.262a4.282,4.282,0,0,0,4.283,4.283H37.262a4.3,4.3,0,0,0,4.283-4.283V7.283A4.3,4.3,0,0,0,37.262,3H7.283A4.282,4.282,0,0,0,3,7.283Zm25.7,8.565a6.424,6.424,0,1,1-6.424-6.424A6.415,6.415,0,0,1,28.7,15.848ZM9.424,32.979c0-4.283,8.565-6.638,12.848-6.638S35.12,28.7,35.12,32.979V35.12H9.424Z" transform="translate(7162 4076)"/>
</svg>
